<?xml version="1.0" standalone="no"?>
<!DOCTYPE svg PUBLIC "-//W3C//DTD SVG 20010904//EN"
 "http://www.w3.org/TR/2001/REC-SVG-20010904/DTD/svg10.dtd">
<svg version="1.0" xmlns="http://www.w3.org/2000/svg"
 width="512.000000pt" height="512.000000pt" viewBox="0 0 512.000000 512.000000"
 preserveAspectRatio="xMidYMid meet">

<g transform="translate(0.000000,512.000000) scale(0.100000,-0.100000)"
fill="#000000" stroke="none">
<path d="M2428 4960 c-331 -56 -593 -297 -679 -625 -28 -111 -28 -289 0 -400
161 -617 908 -842 1374 -415 177 162 268 373 268 615 0 142 -21 238 -80 360
-159 331 -527 525 -883 465z m356 -148 c120 -41 188 -84 281 -177 156 -155
229 -363 204 -582 -18 -162 -88 -303 -208 -424 -85 -85 -172 -138 -289 -177
-67 -23 -94 -26 -212 -26 -118 0 -145 3 -212 26 -106 35 -197 89 -273 160
-297 278 -306 739 -20 1023 158 157 314 218 537 210 85 -3 124 -9 192 -33z"/>
<path d="M2370 4580 c-18 -18 -20 -33 -20 -130 l0 -109 -117 -3 c-150 -4 -144
5 -141 -215 4 -205 -2 -197 148 -201 l110 -4 0 -104 c0 -148 -6 -144 210 -144
216 0 210 -4 210 144 l0 104 110 4 c150 4 144 -4 148 201 3 220 9 211 -141
215 l-117 3 0 109 c0 155 7 150 -210 150 -157 0 -172 -2 -190 -20z m280 -207
c0 -60 4 -113 8 -119 17 -25 56 -34 152 -34 l101 0 -3 -87 -3 -88 -110 -3
c-146 -4 -145 -3 -145 -144 l0 -108 -90 0 -90 0 0 108 c0 141 1 140 -145 144
l-110 3 -3 88 -3 87 101 0 c96 0 135 9 152 34 4 6 8 59 8 119 l0 107 90 0 90
0 0 -107z"/>
<path d="M890 3414 c-135 -53 -253 -103 -262 -111 -29 -26 -21 -53 42 -157 33
-54 60 -101 60 -103 0 -2 -20 -32 -44 -66 -104 -147 -140 -264 -139 -447 0
-91 5 -140 18 -180 14 -43 19 -104 24 -270 6 -217 8 -227 44 -267 l20 -22 -24
-10 c-112 -43 -278 -126 -305 -152 -50 -48 -67 -101 -124 -391 -52 -260 -53
-268 -35 -288 18 -20 29 -20 598 -20 l579 0 -7 -27 c-19 -77 -135 -671 -135
-694 0 -14 8 -33 18 -42 17 -16 121 -17 1288 -17 1384 0 1314 -3 1314 55 0 12
-32 178 -70 369 -39 190 -70 348 -70 351 0 3 283 5 628 5 624 0 629 0 648 21
18 20 17 26 -40 312 -33 161 -68 314 -79 340 -33 79 -82 113 -306 210 -111 48
-233 99 -271 113 l-70 26 0 56 c0 53 3 59 44 102 62 62 112 150 142 246 20 62
32 85 51 95 13 7 36 33 50 56 21 37 24 51 19 96 -3 28 -10 126 -15 217 -7 124
-14 183 -31 235 -113 359 -400 489 -743 336 -52 -23 -68 -26 -102 -18 -87 19
-178 -13 -239 -84 -74 -87 -108 -235 -106 -464 1 -92 -3 -168 -11 -197 -10
-41 -10 -53 5 -92 10 -25 34 -60 55 -78 27 -24 42 -49 55 -93 27 -90 81 -186
142 -253 49 -55 54 -64 54 -106 0 -43 -3 -47 -32 -61 -37 -16 -437 -185 -455
-192 -6 -2 -1 21 12 54 14 32 30 82 36 111 7 28 16 52 20 52 16 0 80 63 96 94
20 39 21 132 2 169 -11 21 -13 45 -8 100 4 39 4 119 -2 177 -30 339 -207 588
-466 655 -130 34 -317 4 -471 -74 -31 -16 -52 -18 -124 -14 -56 4 -103 1 -133
-7 -54 -15 -126 -75 -161 -136 -37 -62 -73 -181 -81 -267 l-7 -72 -8 45 c-26
142 -85 277 -154 358 l-34 40 65 105 c36 58 65 111 65 120 0 8 -8 24 -17 35
-21 23 -507 212 -544 211 -13 0 -134 -43 -269 -95z m470 -101 c110 -42 200
-81 200 -86 0 -8 -101 -179 -115 -195 -2 -2 -53 4 -114 14 l-111 17 0 37 c0
36 1 38 40 43 53 7 70 22 70 62 0 40 -14 53 -65 57 -39 3 -40 4 -43 45 -3 43
-12 56 -49 67 -33 11 -73 -32 -73 -79 0 -34 -1 -35 -39 -35 -42 0 -71 -25 -71
-61 0 -24 47 -59 80 -59 25 0 28 -4 32 -37 3 -21 5 -39 4 -40 -2 -2 -205 -33
-217 -33 -8 0 -133 199 -128 204 3 2 369 145 397 155 1 1 92 -33 202 -76z
m2758 -8 c103 -47 193 -172 227 -316 18 -80 21 -273 3 -267 -16 6 -26 41 -27
94 -1 27 -8 47 -21 59 -19 18 -24 18 -108 2 -165 -32 -306 -18 -416 41 -28 15
-82 58 -120 95 -59 59 -72 68 -95 62 -37 -9 -47 -27 -55 -99 -9 -87 -32 -151
-71 -191 -55 -59 -58 -53 -52 113 6 174 28 262 82 320 32 36 36 37 92 34 32
-2 74 -4 93 -4 21 -1 67 13 115 35 136 62 249 68 353 22z m-1374 -260 c196
-51 334 -251 365 -526 12 -106 5 -229 -14 -229 -31 0 -48 28 -52 86 -9 128
-14 132 -152 104 -274 -56 -475 -5 -645 162 -80 79 -105 91 -140 65 -13 -10
-20 -36 -27 -98 -11 -98 -22 -138 -56 -197 -25 -43 -97 -101 -111 -88 -4 4 -7
80 -6 169 1 229 36 360 115 432 48 43 83 47 185 24 48 -11 53 -10 121 24 159
80 295 104 417 72z m-1475 -111 l31 -6 -33 -45 c-108 -151 -271 -232 -501
-249 -109 -8 -106 -11 -80 77 19 64 57 141 92 188 21 28 26 31 34 17 11 -20
45 -20 139 -1 122 24 253 32 318 19z m331 -119 c15 -33 35 -86 43 -117 17 -66
16 -67 -54 -43 -92 31 -154 108 -166 204 l-5 47 39 -4 c28 -3 43 1 53 13 13
16 16 15 37 -11 13 -16 37 -56 53 -89z m2105 5 c98 -59 172 -75 347 -75 l157
1 6 -32 c11 -62 75 -114 140 -114 43 0 29 -44 -21 -65 -36 -15 -45 -30 -63
-110 -52 -230 -260 -392 -454 -356 -82 15 -146 49 -208 111 -66 66 -113 151
-140 259 -18 71 -37 101 -64 101 -19 0 -47 37 -43 55 2 10 24 25 51 35 27 10
63 30 81 44 41 31 90 106 107 164 12 40 13 42 33 27 12 -8 44 -29 71 -45z
m-2293 -195 c46 -43 146 -92 201 -102 21 -3 41 -12 44 -20 9 -22 -46 -120 -87
-156 -21 -18 -46 -52 -56 -77 -46 -118 -135 -210 -241 -250 -167 -63 -359 31
-445 217 -17 38 -53 92 -80 120 -46 50 -78 105 -78 136 0 9 33 16 123 24 67 7
149 19 182 28 97 25 215 88 285 153 l64 58 23 -47 c13 -26 42 -64 65 -84z
m946 -214 c34 -17 102 -41 150 -52 75 -18 107 -20 227 -16 77 3 149 9 161 12
18 6 23 1 32 -37 25 -93 88 -147 175 -148 30 0 37 -4 37 -19 0 -26 -47 -81
-70 -81 -28 0 -42 -25 -66 -121 -68 -268 -266 -449 -492 -449 -134 0 -242 50
-345 160 -90 95 -129 178 -171 363 -5 21 -18 33 -51 47 -49 21 -71 54 -62 92
5 17 20 28 59 42 116 41 197 130 232 255 l17 61 52 -39 c29 -21 80 -53 115
-70z m-569 -102 c1 -31 -6 -73 -14 -92 -8 -20 -15 -51 -15 -70 0 -51 46 -134
91 -164 22 -14 39 -32 39 -40 0 -34 54 -173 92 -238 23 -38 68 -98 100 -131
l59 -62 -3 -73 c-2 -57 -7 -74 -18 -77 -12 -2 -21 20 -38 97 -34 150 -64 184
-227 254 -194 84 -179 76 -162 95 40 44 47 85 47 274 0 139 4 199 18 255 19
81 29 72 31 -28z m-169 -253 c0 -174 -1 -176 -96 -176 l-64 0 0 51 c0 47 4 55
50 106 27 31 62 80 77 109 15 30 29 54 31 54 1 0 2 -65 2 -144z m-794 -26 c41
-42 44 -50 44 -98 l0 -52 -68 0 c-40 0 -73 5 -80 12 -8 8 -12 58 -12 157 l0
145 36 -60 c19 -32 55 -79 80 -104z m2959 -77 c76 -16 160 -11 229 13 52 19
56 18 56 -10 0 -46 -131 -136 -198 -136 -44 0 -97 23 -149 66 -33 28 -43 42
-43 66 0 25 3 29 18 23 9 -4 49 -13 87 -22z m-2735 -58 c71 -19 164 -19 226 0
63 19 64 19 64 -8 0 -26 -58 -86 -107 -111 -45 -22 -111 -20 -153 5 -59 35
-90 70 -90 101 0 15 1 28 3 28 1 0 27 -7 57 -15z m2598 -102 c84 -68 133 -88
222 -88 86 0 147 25 231 96 l48 40 88 -34 c168 -66 437 -187 459 -208 33 -31
40 -53 92 -311 l48 -238 -617 0 -618 0 -48 30 c-48 29 -553 250 -573 250 -14
0 -13 14 10 124 20 100 36 135 73 159 25 16 481 213 525 226 2 1 29 -20 60
-46z m-2684 -77 c75 -61 130 -80 213 -74 77 6 133 30 194 85 39 35 40 36 82
23 43 -13 364 -148 428 -181 50 -25 67 -55 88 -161 11 -51 19 -93 18 -94 -1
-1 -108 -47 -237 -103 -129 -56 -257 -115 -283 -131 l-48 -30 -565 0 c-477 0
-564 2 -564 14 0 8 20 112 44 232 40 196 47 220 73 245 17 16 109 61 233 114
113 47 214 90 225 95 34 15 44 11 99 -34z m1362 -308 c87 -32 285 -32 364 0
30 12 58 22 63 22 4 0 7 -18 7 -39 0 -34 -6 -45 -55 -89 -138 -126 -262 -127
-395 -3 -45 42 -50 52 -50 89 0 23 2 42 3 42 2 0 30 -10 63 -22z m632 -217 c3
-18 -2 -21 -35 -21 -47 0 -100 -26 -126 -61 -23 -32 -137 -438 -137 -489 0
-74 69 -150 135 -150 41 0 57 19 53 61 -2 24 -11 37 -33 49 -16 9 -31 24 -33
33 -4 17 94 389 110 421 8 15 17 17 52 13 76 -11 173 -46 178 -65 5 -19 -99
-410 -114 -429 -6 -7 -28 -13 -49 -13 -28 0 -42 -6 -53 -22 -69 -98 107 -138
193 -45 24 26 48 101 116 363 36 140 36 182 -4 231 -23 27 -81 63 -103 63 -10
0 -18 6 -18 14 0 15 363 -138 410 -173 47 -35 62 -79 121 -369 32 -158 61
-297 64 -310 l5 -22 -1180 0 c-649 0 -1180 2 -1180 4 0 10 112 556 121 591 15
55 52 101 102 127 23 11 117 53 208 93 l166 73 5 -102 c4 -74 12 -119 31 -169
22 -62 24 -71 11 -95 -8 -15 -14 -51 -14 -80 0 -116 86 -202 203 -202 156 0
252 163 177 300 -43 77 -136 121 -212 102 -39 -10 -40 -10 -56 26 -19 44 -28
215 -14 253 7 18 24 30 65 44 l54 18 64 -53 c96 -80 172 -112 264 -112 65 0
85 5 147 34 40 19 98 57 128 85 l55 50 60 -22 c44 -17 61 -28 63 -44z m-751
-410 c39 -24 51 -67 29 -109 -17 -33 -34 -42 -79 -42 -69 0 -105 91 -54 137
40 37 61 40 104 14z"/>
<path d="M4340 1500 c-16 -16 -20 -33 -20 -80 l0 -60 -52 0 c-71 0 -102 -17
-106 -56 -5 -48 18 -64 94 -64 l64 0 0 -63 c0 -76 14 -100 60 -100 46 0 60 24
60 100 l0 63 64 0 c70 0 96 14 96 54 0 44 -23 60 -94 64 l-66 4 0 59 c0 64
-21 99 -60 99 -11 0 -29 -9 -40 -20z"/>
</g>
</svg>
